<svg width="18" height="19" viewBox="0 0 18 19" fill="none" xmlns="http://www.w3.org/2000/svg">
<path d="M2.03997 7.3C1.87695 7.46373 1.77565 7.67885 1.7533 7.90882C1.73094 8.13878 1.78891 8.36939 1.91734 8.56145C2.04577 8.75351 2.23675 8.89517 2.45781 8.96236C2.67888 9.02955 2.91638 9.01811 3.12997 8.93C3.2515 8.87564 3.36305 8.80128 3.45997 8.71C3.54992 8.61785 3.62123 8.50919 3.66997 8.39C3.72713 8.26817 3.75455 8.1345 3.74997 8C3.74886 7.73766 3.64471 7.48626 3.45997 7.3C3.36701 7.20627 3.25641 7.13188 3.13455 7.08111C3.01269 7.03034 2.88198 7.0042 2.74997 7.0042C2.61796 7.0042 2.48725 7.03034 2.36539 7.08111C2.24353 7.13188 2.13293 7.20627 2.03997 7.3ZM2.74997 2C3.01519 2 3.26954 2.10536 3.45708 2.29289C3.64461 2.48043 3.74997 2.73478 3.74997 3C3.74997 3.26522 3.64461 3.51957 3.45708 3.70711C3.26954 3.89464 3.01519 4 2.74997 4C2.48475 4 2.2304 4.10536 2.04286 4.29289C1.85533 4.48043 1.74997 4.73478 1.74997 5C1.74997 5.26522 1.85533 5.51957 2.04286 5.70711C2.2304 5.89464 2.48475 6 2.74997 6C3.2765 5.99966 3.79366 5.86075 4.2495 5.59723C4.70534 5.33371 5.0838 4.95486 5.34684 4.49875C5.60989 4.04264 5.74826 3.52533 5.74804 2.9988C5.74783 2.47227 5.60905 1.95507 5.34564 1.49917C5.08223 1.04326 4.70347 0.664718 4.24742 0.401563C3.79137 0.138409 3.27409 -8.42941e-05 2.74756 3.84915e-08C2.22104 8.43711e-05 1.7038 0.138743 1.24784 0.402044C0.791872 0.665344 0.413234 1.04401 0.149969 1.5C0.0838504 1.61413 0.040964 1.74022 0.0237807 1.871C0.00659735 2.00178 0.0154563 2.13466 0.0498474 2.262C0.0842386 2.38934 0.143482 2.50862 0.224167 2.61297C0.304851 2.71732 0.405382 2.80467 0.519969 2.87C0.749586 3.00037 1.02145 3.03464 1.27623 2.96532C1.53102 2.896 1.74805 2.72873 1.87997 2.5C1.96807 2.34739 2.09494 2.22078 2.24772 2.13298C2.40049 2.04517 2.57376 1.9993 2.74997 2ZM14.75 3H8.74997C8.48475 3 8.2304 3.10536 8.04286 3.29289C7.85533 3.48043 7.74997 3.73478 7.74997 4C7.74997 4.26522 7.85533 4.51957 8.04286 4.70711C8.2304 4.89464 8.48475 5 8.74997 5H14.75C15.0152 5 15.2695 5.10536 15.4571 5.29289C15.6446 5.48043 15.75 5.73478 15.75 6V15.72L14.18 14.27C13.9955 14.0973 13.7526 14.0009 13.5 14H4.74997C4.48475 14 4.2304 13.8946 4.04286 13.7071C3.85533 13.5196 3.74997 13.2652 3.74997 13V12C3.74997 11.7348 3.64461 11.4804 3.45708 11.2929C3.26954 11.1054 3.01519 11 2.74997 11C2.48475 11 2.2304 11.1054 2.04286 11.2929C1.85533 11.4804 1.74997 11.7348 1.74997 12V13C1.74997 13.7956 2.06604 14.5587 2.62865 15.1213C3.19126 15.6839 3.95432 16 4.74997 16H13.11L16.11 18.73C16.2842 18.8936 16.5112 18.9894 16.75 19C16.8871 18.9985 17.0228 18.9714 17.15 18.92C17.3288 18.8419 17.481 18.7132 17.5876 18.5497C17.6942 18.3863 17.7506 18.1952 17.75 18V6C17.75 5.20435 17.4339 4.44129 16.8713 3.87868C16.3087 3.31607 15.5456 3 14.75 3Z" fill="black"/>
</svg>
