<svg width="16" height="16" viewBox="0 0 16 16" fill="none" xmlns="http://www.w3.org/2000/svg">
<path d="M11.2706 5.74977H3.77097C3.57207 5.74977 3.38131 5.82878 3.24067 5.96943C3.10002 6.11007 3.02101 6.30083 3.02101 6.49973C3.02101 6.69864 3.10002 6.88939 3.24067 7.03004C3.38131 7.17069 3.57207 7.2497 3.77097 7.2497H11.2706C11.4695 7.2497 11.6603 7.17069 11.8009 7.03004C11.9416 6.88939 12.0206 6.69864 12.0206 6.49973C12.0206 6.30083 11.9416 6.11007 11.8009 5.96943C11.6603 5.82878 11.4695 5.74977 11.2706 5.74977ZM8.27077 8.74963H3.77097C3.57207 8.74963 3.38131 8.82865 3.24067 8.9693C3.10002 9.10994 3.02101 9.3007 3.02101 9.4996C3.02101 9.69851 3.10002 9.88926 3.24067 10.0299C3.38131 10.1706 3.57207 10.2496 3.77097 10.2496H8.27077C8.46968 10.2496 8.66043 10.1706 8.80108 10.0299C8.94173 9.88926 9.02074 9.69851 9.02074 9.4996C9.02074 9.3007 8.94173 9.10994 8.80108 8.9693C8.66043 8.82865 8.46968 8.74963 8.27077 8.74963ZM7.52081 0.5C6.53594 0.5 5.56071 0.693985 4.65081 1.07088C3.74091 1.44777 2.91415 2.00019 2.21774 2.6966C0.81128 4.10306 0.0211388 6.01063 0.0211388 7.99967C0.0145825 9.73144 0.614207 11.4109 1.71606 12.747L0.21613 14.2469C0.112067 14.3524 0.0415725 14.4863 0.0135432 14.6318C-0.0144862 14.7772 0.00120512 14.9278 0.0586371 15.0644C0.120928 15.1993 0.221908 15.3127 0.348759 15.3901C0.475611 15.4676 0.622613 15.5056 0.771106 15.4993H7.52081C9.50984 15.4993 11.4174 14.7092 12.8239 13.3027C14.2303 11.8963 15.0205 9.9887 15.0205 7.99967C15.0205 6.01063 14.2303 4.10306 12.8239 2.6966C11.4174 1.29014 9.50984 0.5 7.52081 0.5ZM7.52081 13.9994H2.57853L3.27599 13.3019C3.41568 13.1614 3.49408 12.9713 3.49408 12.7732C3.49408 12.5751 3.41568 12.385 3.27599 12.2445C2.29398 11.2636 1.68245 9.97248 1.54559 8.59124C1.40873 7.20999 1.75502 5.82402 2.52545 4.66946C3.29588 3.5149 4.44279 2.66317 5.77077 2.2594C7.09875 1.85563 8.52566 1.92479 9.80837 2.4551C11.0911 2.98541 12.1502 3.94405 12.8054 5.16771C13.4606 6.39137 13.6712 7.80433 13.4014 9.16587C13.1316 10.5274 12.3981 11.7533 11.3258 12.6346C10.2535 13.516 8.90882 13.9983 7.52081 13.9994Z" fill="#101010"/>
</svg>
