<svg width="20" height="20" viewBox="0 0 20 20" fill="none" xmlns="http://www.w3.org/2000/svg">
<path d="M13.0917 10.5917C13.1676 10.5124 13.227 10.419 13.2667 10.3167C13.35 10.1138 13.35 9.88624 13.2667 9.68336C13.227 9.58106 13.1676 9.48761 13.0917 9.40836L10.5917 6.90836C10.4348 6.75144 10.2219 6.66328 10 6.66328C9.77811 6.66328 9.56528 6.75144 9.40836 6.90836C9.25144 7.06528 9.16328 7.27811 9.16328 7.50002C9.16328 7.72194 9.25144 7.93477 9.40836 8.09169L10.4917 9.16669H7.50002C7.27901 9.16669 7.06705 9.25449 6.91077 9.41077C6.75449 9.56705 6.66669 9.77901 6.66669 10C6.66669 10.221 6.75449 10.433 6.91077 10.5893C7.06705 10.7456 7.27901 10.8334 7.50002 10.8334H10.4917L9.40836 11.9084C9.33025 11.9858 9.26826 12.078 9.22595 12.1795C9.18364 12.2811 9.16186 12.39 9.16186 12.5C9.16186 12.61 9.18364 12.719 9.22595 12.8205C9.26826 12.9221 9.33025 13.0142 9.40836 13.0917C9.48583 13.1698 9.57799 13.2318 9.67954 13.2741C9.78109 13.3164 9.89001 13.3382 10 13.3382C10.11 13.3382 10.219 13.3164 10.3205 13.2741C10.4221 13.2318 10.5142 13.1698 10.5917 13.0917L13.0917 10.5917ZM18.3334 10C18.3334 8.35185 17.8446 6.74068 16.9289 5.37027C16.0133 3.99986 14.7118 2.93176 13.1891 2.30103C11.6663 1.6703 9.99078 1.50527 8.37427 1.82681C6.75776 2.14836 5.27291 2.94203 4.10747 4.10747C2.94203 5.27291 2.14836 6.75776 1.82681 8.37427C1.50527 9.99078 1.6703 11.6663 2.30103 13.1891C2.93176 14.7118 3.99986 16.0133 5.37027 16.9289C6.74068 17.8446 8.35185 18.3334 10 18.3334C12.2102 18.3334 14.3298 17.4554 15.8926 15.8926C17.4554 14.3298 18.3334 12.2102 18.3334 10ZM3.33336 10C3.33336 8.68148 3.72435 7.39255 4.45689 6.29622C5.18944 5.19989 6.23063 4.34541 7.4488 3.84083C8.66698 3.33624 10.0074 3.20422 11.3006 3.46146C12.5938 3.71869 13.7817 4.35363 14.7141 5.28598C15.6464 6.21833 16.2814 7.40622 16.5386 8.69942C16.7958 9.99263 16.6638 11.3331 16.1592 12.5512C15.6546 13.7694 14.8002 14.8106 13.7038 15.5432C12.6075 16.2757 11.3186 16.6667 10 16.6667C8.23191 16.6667 6.53622 15.9643 5.28598 14.7141C4.03574 13.4638 3.33336 11.7681 3.33336 10Z" fill="#101010"/>
</svg>
