<svg width="38" height="42" viewBox="0 0 38 42" fill="none" xmlns="http://www.w3.org/2000/svg">
<path d="M37.907 12.1101C37.8387 12.3525 37.7655 12.595 37.6923 12.8326C37.6887 12.8513 37.6822 12.8693 37.6727 12.8859C37.6679 12.9053 37.663 12.9247 37.6581 12.9392C37.6484 12.9662 37.6402 12.9937 37.6337 13.0217C37.5947 13.1429 37.5556 13.2592 37.5166 13.3708C37.4873 13.458 37.458 13.5453 37.4288 13.6277C37.4155 13.6756 37.3992 13.7225 37.38 13.7683C37.3732 13.7999 37.3634 13.8307 37.3507 13.8605V13.8653C37.3507 13.8702 37.3458 13.875 37.3409 13.8847C37.3352 13.8956 37.3303 13.907 37.3263 13.9186C37.3214 13.9283 37.3165 13.9429 37.3117 13.9526C37.258 14.1029 37.2043 14.258 37.1457 14.4084C37.0872 14.5587 37.0287 14.7187 36.9652 14.869C36.8578 15.1453 36.7407 15.4217 36.6236 15.6932C36.5699 15.8241 36.5114 15.9551 36.448 16.0811C36.3943 16.212 36.3357 16.3429 36.2723 16.469C36.2625 16.4884 36.2528 16.5127 36.243 16.532C36.1064 16.8278 35.96 17.1187 35.8087 17.4048C35.7889 17.4515 35.7661 17.4968 35.7404 17.5406C35.5794 17.8509 35.4135 18.1515 35.2378 18.4521C35.233 18.4722 35.2229 18.4906 35.2085 18.5054C35.1256 18.6606 35.0329 18.8109 34.945 18.9563C34.8279 19.1551 34.7108 19.3491 34.5839 19.543C34.5547 19.5915 34.5254 19.64 34.4912 19.6885C34.3888 19.8533 34.2765 20.023 34.1643 20.1879C33.9447 20.5176 33.7203 20.8425 33.4811 21.1625C33.4698 21.1841 33.4549 21.2037 33.4372 21.2206C33.4015 21.2763 33.3623 21.3297 33.3201 21.3806C33.3152 21.3903 33.3055 21.4 33.3006 21.4097C33.2664 21.4582 33.2274 21.5067 33.1932 21.5503C33.1591 21.594 33.1298 21.6376 33.0957 21.6813C33.0908 21.691 33.081 21.7007 33.0761 21.7104C33.0469 21.7491 33.0176 21.7831 32.9834 21.8219C32.9151 21.914 32.8468 22.0013 32.7736 22.0885C32.7357 22.1423 32.6949 22.1941 32.6516 22.2437C32.6223 22.2825 32.5931 22.3213 32.5589 22.3601C32.5247 22.3989 32.4906 22.4425 32.4564 22.4813C32.432 22.5152 32.4028 22.5492 32.3784 22.5783L32.3686 22.588C32.3198 22.6461 32.2759 22.7043 32.2271 22.7577C32.1197 22.8837 32.0124 23.0098 31.9001 23.1358C31.8757 23.1649 31.8562 23.1892 31.8318 23.2134C31.8121 23.2389 31.7909 23.2631 31.7684 23.2861C31.6513 23.4219 31.5293 23.5528 31.4024 23.6886C31.3731 23.7225 31.3439 23.7565 31.3097 23.7904C31.2756 23.8243 31.2414 23.8631 31.2072 23.8971C31.1389 23.9698 31.0706 24.0425 30.9974 24.1153C30.9659 24.1532 30.9316 24.1889 30.8949 24.2219C30.729 24.3965 30.5534 24.571 30.3728 24.7456C30.2948 24.8232 30.2118 24.9056 30.124 24.988C29.6702 25.4244 29.2017 25.8414 28.7138 26.2486C28.7004 26.2614 28.6856 26.2728 28.6698 26.2826C28.5918 26.3505 28.5088 26.4183 28.4259 26.4862C28.3575 26.5444 28.2844 26.6026 28.2112 26.6608C28.1916 26.6753 28.1721 26.6899 28.1575 26.6996C28.0355 26.8014 27.9086 26.8984 27.7866 26.9905C27.6061 27.1311 27.4255 27.2669 27.245 27.3978C27.1962 27.4366 27.1425 27.4705 27.0937 27.5044C27.0754 27.5205 27.0559 27.5351 27.0352 27.5481C27.0259 27.5588 27.0142 27.5671 27.001 27.5723C26.962 27.6014 26.9229 27.6305 26.8839 27.6547C26.7619 27.742 26.6448 27.8244 26.5228 27.9069C26.4682 27.949 26.4112 27.9878 26.352 28.0232C26.2057 28.1202 26.0641 28.2172 25.9177 28.3093C25.8543 28.3529 25.7957 28.3917 25.7323 28.4305C25.6689 28.4693 25.6054 28.5129 25.542 28.5517C25.4542 28.6051 25.3663 28.6632 25.2785 28.7117C25.2295 28.7486 25.1772 28.781 25.1224 28.8087L25.0492 28.8523C25.0199 28.8717 24.9857 28.8911 24.9564 28.9105C24.5612 29.1433 24.1611 29.3663 23.7561 29.5845C23.5902 29.6718 23.4194 29.759 23.2486 29.8463C23.2187 29.8643 23.1878 29.8805 23.1559 29.8948C23.151 29.8948 23.151 29.8996 23.1461 29.8996C23.1998 29.696 23.2486 29.4875 23.2974 29.279C23.3364 29.1142 23.3755 28.9493 23.4096 28.7845C23.4926 28.4208 23.5609 28.0523 23.6243 27.679V27.6644C23.6262 27.6625 23.6276 27.6602 23.6284 27.6577C23.6292 27.6552 23.6295 27.6526 23.6292 27.6499C23.639 27.6014 23.6487 27.5481 23.6536 27.4996C23.6682 27.4172 23.6829 27.3396 23.6926 27.2572C23.7365 26.9953 23.7756 26.7287 23.8098 26.462C23.8098 26.4474 23.8146 26.4329 23.8146 26.4183C23.8439 26.1856 23.8732 25.9529 23.8976 25.7201C23.9024 25.6911 23.9024 25.6571 23.9073 25.628L23.922 25.4389C23.9464 25.1771 23.9659 24.9104 23.9854 24.6486V24.6244C24.0049 24.3237 24.0196 24.0183 24.0293 23.7177C24.0391 23.4171 24.044 23.1068 24.044 22.8013C24.044 22.5492 24.0391 22.3019 24.0342 22.0546C24.0293 21.9431 24.0293 21.8364 24.0196 21.7249C24.0147 21.5261 24.0049 21.3273 23.9952 21.1285C23.9854 21.017 23.9805 20.9006 23.9708 20.7891C23.9659 20.7164 23.961 20.6485 23.9561 20.5758C23.9464 20.44 23.9366 20.3091 23.922 20.1782L23.9073 20.0327C23.9024 19.9503 23.8927 19.863 23.8829 19.7758C23.8805 19.7319 23.8756 19.6882 23.8683 19.6448C23.8537 19.4703 23.8293 19.2909 23.8049 19.1164C23.7756 18.8788 23.7414 18.6363 23.7024 18.3988C23.678 18.2291 23.6487 18.0642 23.6194 17.8945C23.595 17.7442 23.5706 17.5987 23.5414 17.4484C23.5121 17.2981 23.4779 17.1381 23.4438 16.983V16.9733C23.4242 16.8811 23.4047 16.7842 23.3852 16.692C23.3803 16.6678 23.3755 16.6484 23.3706 16.6242C23.3511 16.5369 23.3315 16.4448 23.3071 16.3575C23.303 16.328 23.2964 16.2988 23.2876 16.2702C23.2486 16.1102 23.2144 15.9551 23.1754 15.7999C23.1656 15.766 23.1607 15.7369 23.151 15.7078C23.1119 15.5575 23.0729 15.4072 23.029 15.252C23.0095 15.1841 22.99 15.1114 22.9704 15.0387L22.8972 14.7914C22.8777 14.7187 22.8582 14.6459 22.8339 14.5781C22.8296 14.5548 22.8231 14.5321 22.8143 14.5102C22.7997 14.4617 22.785 14.4181 22.7704 14.3696C22.7655 14.3599 22.7655 14.3453 22.7606 14.3356C22.7216 14.2096 22.6874 14.0883 22.6435 13.9671C22.6337 13.938 22.624 13.9138 22.6142 13.8847C22.6045 13.8556 22.5947 13.8168 22.5801 13.778C22.5313 13.618 22.4776 13.458 22.4142 13.3029C22.3995 13.2495 22.3751 13.1962 22.3556 13.1429C22.3501 13.1323 22.3468 13.1208 22.3459 13.1089C22.2873 12.9392 22.2239 12.7695 22.1555 12.6047V12.5998C22.1214 12.5077 22.0872 12.4156 22.0482 12.3235C22.0189 12.241 21.9848 12.1538 21.9457 12.0713C21.8774 11.8968 21.8042 11.7271 21.731 11.5574L21.7017 11.4846C21.6432 11.3489 21.5797 11.2083 21.5163 11.0677L21.487 11.0095C21.4724 10.9755 21.4578 10.9465 21.4431 10.9125C21.4382 10.9077 21.4382 10.898 21.4334 10.8931C21.3699 10.7428 21.2967 10.5925 21.2235 10.4422C21.2161 10.4298 21.2095 10.4168 21.204 10.4034C21.1845 10.3646 21.1601 10.321 21.1406 10.2773C20.9356 9.85552 20.7209 9.44339 20.4916 9.0361C20.4233 8.91004 20.355 8.78398 20.2818 8.66276C20.2525 8.60458 20.2183 8.5464 20.1842 8.48821C20.1207 8.38154 20.0573 8.27972 19.9939 8.17305C19.9646 8.11972 19.9304 8.06638 19.8963 8.01305C19.7645 7.79001 19.6279 7.57183 19.4864 7.35364C19.3156 7.09181 19.1448 6.83969 18.9692 6.58271C18.9155 6.50998 18.8618 6.43725 18.8082 6.35968C18.7821 6.31706 18.7528 6.27652 18.7203 6.23846C18.6227 6.09785 18.5202 5.96209 18.4178 5.82148C18.3787 5.7633 18.3348 5.70996 18.2909 5.65178L18.2031 5.53541C18.0615 5.35117 17.92 5.16692 17.7736 4.98752L17.598 4.76935C17.5394 4.69662 17.4809 4.62389 17.4174 4.55116C17.3784 4.50267 17.3394 4.45903 17.3003 4.41055C17.1637 4.24569 17.0222 4.08569 16.8758 3.92569C16.7245 3.75114 16.5684 3.5766 16.4073 3.4069C16.2561 3.2372 16.0951 3.07234 15.9291 2.90749C15.773 2.73779 15.6071 2.57778 15.4412 2.41778C15.4363 2.41293 15.4363 2.41293 15.4363 2.40808L15.4314 2.40323C15.2704 2.24323 15.1045 2.08807 14.9337 1.93292C14.8459 1.84564 14.758 1.76806 14.6702 1.68563L16.4054 0.68731C17.1946 0.236977 18.0889 0 18.9989 0C19.909 0 20.8033 0.236977 21.5924 0.68731L24.73 2.48614C24.7356 2.48817 24.7407 2.4915 24.7447 2.49584H24.7496L24.7544 2.50068L34.2551 7.9505L35.4066 8.60991C36.0514 8.98141 36.6083 9.48615 37.0397 10.09C37.471 10.6939 37.7668 11.3828 37.907 12.1101Z" fill="url(#paint0_linear_483_3753)"/>
<path d="M24.0439 22.8015C24.0439 23.1069 24.039 23.4124 24.0292 23.7179C24.0195 24.0185 24.0048 24.3239 23.9853 24.6245V24.6488C23.9658 24.9106 23.9463 25.1773 23.9219 25.4391L23.9072 25.6282C23.9023 25.6573 23.9023 25.6912 23.8975 25.7203C23.8731 25.9531 23.8438 26.1858 23.8145 26.4185C23.8145 26.4331 23.8096 26.4476 23.8096 26.4622C23.7755 26.7288 23.7364 26.9955 23.6925 27.2573C23.6828 27.3398 23.6681 27.4174 23.6535 27.4998C23.6486 27.5483 23.6388 27.6016 23.6291 27.6501C23.6294 27.6527 23.6291 27.6554 23.6283 27.6579C23.6274 27.6604 23.6261 27.6627 23.6242 27.6646V27.6792C23.5608 28.0525 23.4925 28.421 23.4095 28.7847C23.3753 28.9495 23.3363 29.1144 23.2973 29.2792C23.2485 29.4877 23.1997 29.6962 23.146 29.8998C19.1336 31.9189 14.6979 32.9672 10.2004 32.9593C9.93687 32.9593 9.67824 32.9545 9.41475 32.9496C9.32691 32.9448 9.2342 32.9448 9.14149 32.9399H9.09757L8.52665 32.9108C8.43394 32.906 8.33635 32.9011 8.24364 32.8914C8.1314 32.8866 8.02405 32.8768 7.91182 32.8671C7.73616 32.8575 7.55561 32.8381 7.37994 32.8235C7.32627 32.8186 7.27259 32.8138 7.21892 32.8041C7.16524 32.8041 7.11156 32.7945 7.05301 32.7896C6.99445 32.7848 6.92614 32.7751 6.86758 32.7654C6.8528 32.7686 6.83738 32.7669 6.82367 32.7605C6.71143 32.7508 6.5992 32.7363 6.48697 32.7217L6.17468 32.6781C6.02829 32.6635 5.88678 32.6393 5.74527 32.6151C5.57936 32.5908 5.41833 32.5665 5.25731 32.5326C5.25238 32.5342 5.24716 32.5346 5.24208 32.5337C5.23696 32.5329 5.23218 32.5308 5.22803 32.5278C5.00845 32.4938 4.79374 32.455 4.58392 32.4114C4.55896 32.4072 4.53446 32.4007 4.51072 32.392C4.47894 32.3907 4.44761 32.3842 4.41801 32.3726C4.18867 32.329 3.95932 32.2804 3.73486 32.232C3.70129 32.2216 3.66706 32.2135 3.63239 32.2078C3.53518 32.1887 3.43908 32.1644 3.34449 32.135C3.13955 32.0866 2.9346 32.0332 2.73454 31.9799C2.50032 31.9217 2.27097 31.8586 2.04163 31.7907V31.7859C2.034 31.7824 2.02564 31.7808 2.01723 31.7811H2.0104L2.00552 31.7762H2.00064C1.99301 31.7727 1.98465 31.7711 1.97625 31.7714L1.97137 31.7665C1.5078 31.6308 1.054 31.4853 0.600192 31.3253C0.206687 30.5839 0.00069417 29.7585 0 28.9204V13.08C0.000221618 12.1741 0.240189 11.2842 0.695827 10.4996C1.15147 9.71491 1.80676 9.06316 2.59596 8.60957L14.6681 1.68579C14.756 1.76822 14.8438 1.8458 14.9316 1.93307C15.1024 2.08823 15.2683 2.24339 15.4294 2.40339L15.4342 2.40824C15.4342 2.41309 15.4342 2.41309 15.4391 2.41793C15.605 2.57794 15.7661 2.7428 15.9271 2.90765C16.0881 3.0725 16.2491 3.23735 16.4053 3.40705C16.5614 3.57676 16.7225 3.7513 16.8737 3.92585C17.0201 4.08585 17.1616 4.24585 17.2983 4.41071C17.3373 4.45919 17.3763 4.50283 17.4154 4.55132C17.4788 4.62404 17.5374 4.69678 17.5959 4.76951L17.7716 4.98767C17.918 5.16706 18.0595 5.35136 18.201 5.53561L18.2888 5.65197C18.3327 5.71016 18.3767 5.76344 18.4157 5.82163C18.5182 5.96223 18.6206 6.09804 18.7182 6.23865C18.7507 6.27667 18.7801 6.3172 18.8061 6.35987C18.8597 6.4326 18.9134 6.50533 18.9671 6.5829C19.1428 6.83988 19.3135 7.09201 19.4843 7.35383C19.621 7.57202 19.7625 7.79021 19.8942 8.01324C19.9284 8.06658 19.9625 8.11991 19.9918 8.17325C20.0455 8.25567 20.0943 8.34295 20.1431 8.43022C20.1577 8.44962 20.1675 8.46896 20.1821 8.48836C20.2163 8.54654 20.2504 8.60477 20.2797 8.66296C20.3529 8.78417 20.4212 8.91023 20.4895 9.0363C20.7189 9.44358 20.9336 9.85571 21.1385 10.2775C21.158 10.3212 21.1824 10.3648 21.202 10.4036C21.2075 10.417 21.214 10.4299 21.2215 10.4423C21.2947 10.5878 21.363 10.743 21.4313 10.8933C21.4362 10.8982 21.4362 10.9078 21.4411 10.9127C21.4557 10.9466 21.4703 10.9757 21.485 11.0097C21.5582 11.1697 21.6265 11.3248 21.6997 11.4848L21.729 11.5576C21.8022 11.7273 21.8753 11.897 21.9437 12.0715C21.9778 12.1539 22.012 12.2412 22.0461 12.3237C22.0803 12.4158 22.1193 12.5079 22.1535 12.6V12.6049C22.2218 12.7746 22.2804 12.9394 22.3438 13.1091C22.3448 13.121 22.3481 13.1325 22.3535 13.1431C22.3731 13.1964 22.3975 13.2497 22.4121 13.3031C22.4755 13.4582 22.5292 13.6182 22.578 13.7782C22.5927 13.817 22.6024 13.851 22.6122 13.8849C22.6219 13.9188 22.6317 13.9382 22.6414 13.9673C22.6854 14.0885 22.7195 14.2097 22.7586 14.3358C22.7634 14.3455 22.7634 14.3601 22.7683 14.3698C22.783 14.4182 22.7976 14.4619 22.8122 14.5104C22.821 14.5323 22.8275 14.555 22.8318 14.5782C22.8562 14.6461 22.8757 14.7188 22.8952 14.7915L22.9684 15.0389C22.9879 15.1116 23.0074 15.1843 23.0269 15.2522C23.0709 15.4074 23.1099 15.5577 23.1489 15.708C23.1587 15.7371 23.1636 15.7662 23.1733 15.8001C23.2124 15.9553 23.2465 16.1104 23.2856 16.2704C23.2944 16.2989 23.3009 16.3281 23.3051 16.3577C23.3295 16.445 23.349 16.537 23.3685 16.6243C23.3685 16.634 23.3734 16.6438 23.3734 16.6583C23.3773 16.6694 23.3806 16.6808 23.3832 16.6922C23.4027 16.7844 23.4222 16.8813 23.4417 16.9734V16.9832C23.4759 17.1383 23.51 17.2935 23.5393 17.4486C23.5686 17.6038 23.593 17.7444 23.6174 17.8947C23.6467 18.0644 23.6759 18.2292 23.7003 18.399C23.7394 18.6365 23.7735 18.879 23.8028 19.1165C23.8272 19.2911 23.8516 19.4705 23.8662 19.645C23.8735 19.6883 23.8784 19.7321 23.8809 19.7759C23.8906 19.8632 23.9004 19.9456 23.9053 20.0329L23.9199 20.1784C23.9345 20.3093 23.9443 20.4402 23.9541 20.576C23.9589 20.6487 23.9638 20.7166 23.9687 20.7893C23.9785 20.9008 23.9833 21.0172 23.9931 21.1287C24.0029 21.3275 24.0126 21.5263 24.0175 21.7251C24.0273 21.8318 24.0273 21.9433 24.0321 22.0548C24.039 22.3021 24.0439 22.5494 24.0439 22.8015Z" fill="url(#paint1_linear_483_3753)"/>
<path d="M38 13.0799V28.9203C38.0007 29.8258 37.7616 30.7156 37.3068 31.5002C36.8521 32.2849 36.1975 32.9369 35.4089 33.3907L21.5947 41.3085C20.897 41.7102 20.1143 41.944 19.3093 41.9911C18.5043 42.0383 17.6994 41.8975 16.9591 41.58C16.7687 41.5032 16.5844 41.4125 16.4077 41.3085L15.5879 40.8382H15.583L2.59636 33.3907C1.7509 32.8998 1.05981 32.1846 0.600595 31.3252C1.0544 31.4852 1.50821 31.6307 1.97177 31.7665L1.97665 31.7713C1.98506 31.771 1.99342 31.7726 2.00105 31.7761C2.00479 31.7765 2.00827 31.7782 2.01081 31.781H2.01569C2.02409 31.7807 2.03245 31.7823 2.04008 31.7859V31.7907C2.26943 31.8585 2.49877 31.9216 2.73299 31.9798C2.96233 32.0477 3.19168 32.1058 3.4259 32.1543C3.52837 32.1834 3.63084 32.2077 3.73331 32.2319C3.99193 32.2901 4.24567 32.3483 4.50917 32.3919C4.53291 32.4006 4.55742 32.4071 4.58237 32.4113C4.80195 32.4598 5.02643 32.4986 5.25577 32.5325C5.45584 32.5713 5.66078 32.6053 5.86573 32.6344C5.9438 32.6489 6.02676 32.6586 6.10971 32.6683C6.35857 32.7071 6.61231 32.741 6.86605 32.7653C6.96364 32.7798 7.06124 32.7895 7.15395 32.7992C7.43209 32.8283 7.7151 32.8574 7.99324 32.8719C8.03335 32.8799 8.07429 32.8832 8.11523 32.8816C8.45681 32.9107 8.79838 32.9301 9.13995 32.9398C9.49129 32.9544 9.84262 32.9592 10.1988 32.9592C14.6963 32.9671 19.1321 31.9188 23.1445 29.8997C23.1494 29.8997 23.1494 29.8949 23.1542 29.8949C23.8276 29.5604 24.4831 29.1983 25.1207 28.8088C25.2622 28.7264 25.4037 28.6391 25.5404 28.5518C25.6038 28.5131 25.6672 28.4743 25.7307 28.4306C25.7941 28.387 25.8527 28.353 25.9161 28.3094C26.0625 28.2173 26.204 28.1203 26.3504 28.0233C26.3612 28.0186 26.3711 28.012 26.3797 28.0039C26.5504 27.8924 26.7164 27.776 26.8823 27.6548C26.9143 27.6355 26.9452 27.6145 26.975 27.5918C27.014 27.5627 27.053 27.5385 27.0921 27.5045C27.3263 27.3397 27.5557 27.17 27.785 26.9906C27.907 26.8985 28.0339 26.8014 28.1558 26.6996C28.2437 26.6317 28.3364 26.5591 28.4242 26.4863C28.4877 26.433 28.5511 26.3845 28.6145 26.3263C28.6536 26.2972 28.6926 26.2681 28.7316 26.2342C29.122 25.9045 29.4977 25.5699 29.8686 25.2305C30.0394 25.0705 30.2102 24.9056 30.3712 24.7456C30.8787 24.2511 31.365 23.7404 31.8302 23.2135C31.9132 23.1214 31.9912 23.0293 32.0693 22.9372C32.1767 22.8208 32.2742 22.6995 32.3767 22.5783C32.4353 22.5056 32.4987 22.4329 32.5573 22.3602C32.5914 22.3214 32.6207 22.2826 32.65 22.2438C32.728 22.1468 32.8061 22.0499 32.8793 21.9529C32.9525 21.8656 33.0208 21.7735 33.094 21.6814C33.1233 21.6377 33.1575 21.5941 33.1916 21.5505C33.2648 21.4583 33.3331 21.3662 33.4014 21.2692C33.6649 20.9153 33.9187 20.5565 34.1627 20.188C34.2749 20.0231 34.3822 19.8583 34.4896 19.6886C34.6457 19.4462 34.797 19.2037 34.9434 18.9564C35.041 18.7964 35.1386 18.6316 35.2313 18.4667C35.6021 17.817 35.9486 17.1511 36.2707 16.4691C36.3292 16.3431 36.3926 16.2121 36.4463 16.0812C36.6269 15.6933 36.7928 15.3055 36.9489 14.9079L37.1539 14.3842C37.2075 14.2388 37.2612 14.0982 37.31 13.9527C37.3149 13.943 37.3198 13.9285 37.3247 13.9188C37.3286 13.9071 37.3335 13.8957 37.3393 13.8848C37.3442 13.8751 37.3491 13.8702 37.3491 13.8654V13.8606C37.365 13.8212 37.378 13.7806 37.3881 13.7394C37.3978 13.72 37.4027 13.7006 37.4125 13.6763C37.4564 13.5551 37.4954 13.4339 37.5345 13.3078C37.5686 13.2157 37.5979 13.1187 37.6321 13.0218C37.6467 12.9781 37.6613 12.9296 37.6711 12.886C37.6805 12.8694 37.6871 12.8514 37.6906 12.8327C37.7638 12.5951 37.837 12.3527 37.9053 12.1102C37.9689 12.4296 38.0006 12.7544 38 13.0799Z" fill="url(#paint2_linear_483_3753)"/>
<g style="mix-blend-mode:multiply" opacity="0.15">
<g style="mix-blend-mode:multiply" opacity="0.15">
<path d="M24.044 22.8011C24.0477 25.1954 23.746 27.5805 23.1461 29.8995C16.8312 33.063 9.56442 33.8035 2.73467 31.9795C10.3908 32.4983 29.8849 31.1988 14.6702 1.68542C17.6276 4.36142 19.9892 7.62227 21.6035 11.2587C23.2178 14.8951 24.0491 18.8267 24.044 22.8011Z" fill="#101010"/>
</g>
</g>
<g style="mix-blend-mode:multiply" opacity="0.15">
<g style="mix-blend-mode:multiply" opacity="0.15">
<path d="M37.907 12.1104C36.8209 15.9278 34.949 19.4796 32.4098 22.541C29.8707 25.6023 26.7196 28.1065 23.1559 29.8951C23.4829 29.6381 33.5983 21.6234 34.2571 7.95032L35.4087 8.60973C36.0531 8.98142 36.6096 9.48636 37.0406 10.0903C37.4717 10.6943 37.7671 11.3832 37.907 12.1104Z" fill="#101010"/>
</g>
</g>
<g style="mix-blend-mode:multiply" opacity="0.25">
<g style="mix-blend-mode:multiply" opacity="0.25">
<path d="M37.3264 13.9187C34.8437 20.8551 29.7695 26.5759 23.156 29.8948C23.1535 29.8977 23.15 29.8994 23.1462 29.8997C16.8312 33.0633 9.56454 33.8038 2.73477 31.9797C2.50054 31.9167 2.2712 31.8537 2.04186 31.7906C2.0321 31.7858 2.02234 31.7858 2.01746 31.781C2.02587 31.7807 2.03423 31.7823 2.04186 31.7858C2.24192 31.8294 2.85676 31.9749 3.81316 32.1494C5.43155 32.4461 7.07173 32.6099 8.71719 32.6392C9.22467 32.6537 9.75655 32.6489 10.2982 32.6343C10.8545 32.6149 11.4205 32.5858 11.9963 32.5422C13.2073 32.4355 14.4112 32.2607 15.6023 32.0185C16.8751 31.7567 18.1288 31.4101 19.3548 30.9809C20.6167 30.5456 21.8462 30.0223 23.034 29.4148C23.1218 29.3712 23.2097 29.3227 23.2975 29.2791C24.3984 28.7039 25.4641 28.0644 26.4888 27.3639C27.55 26.6181 28.5682 25.8136 29.5385 24.9541C30.434 24.1373 31.2828 23.2713 32.0808 22.3601C32.8469 21.4874 33.5057 20.6146 34.0961 19.7904C34.667 18.9516 35.1647 18.1661 35.5844 17.4533C35.7796 17.0897 35.9699 16.7503 36.1407 16.44C36.3066 16.12 36.4432 15.8242 36.5749 15.5575C36.8433 15.0242 37.019 14.5927 37.1556 14.3017C37.2337 14.1223 37.2903 13.9914 37.3264 13.9187Z" fill="#101010"/>
</g>
</g>
<g style="mix-blend-mode:multiply" opacity="0.25">
<g style="mix-blend-mode:multiply" opacity="0.25">
<path d="M23.7079 26.5152C23.7518 25.7588 23.7909 24.6824 23.7616 23.3974C23.7469 22.7574 23.6786 22.069 23.6445 21.3174C23.5615 20.595 23.4883 19.8338 23.3566 19.0435C23.3029 18.6459 23.2346 18.2483 23.1467 17.8458C23.0589 17.4434 22.9857 17.0361 22.8832 16.6288C22.6978 15.8094 22.4587 14.9948 22.2001 14.1851L21.7902 12.9779C21.6341 12.5851 21.4779 12.1923 21.3266 11.8044C21.1559 11.4214 20.9899 11.0384 20.824 10.6651C20.6581 10.2917 20.4629 9.93293 20.2922 9.56928C20.1214 9.20564 19.9164 8.87104 19.7359 8.53163C19.5553 8.19223 19.3699 7.86257 19.1747 7.55226C18.799 6.9171 18.4135 6.34011 18.0573 5.80192C17.6816 5.28312 17.3449 4.79339 17.0228 4.37641C16.6959 3.96913 16.4275 3.59578 16.1786 3.30486C15.7688 2.81031 15.5053 2.49515 15.4369 2.41272C18.7514 5.64967 21.2278 9.63595 22.6545 14.0308C24.0813 18.4256 24.4159 23.0984 23.6298 27.6497C23.6396 27.5188 23.6737 27.1212 23.7079 26.5152Z" fill="#101010"/>
</g>
</g>
<g style="mix-blend-mode:screen" opacity="0.4">
<g style="mix-blend-mode:screen" opacity="0.4">
<path d="M24.7466 2.49535C24.6734 2.46141 24.1757 2.21414 23.351 1.78746C22.9021 1.55473 22.3653 1.26381 21.7408 0.968049C21.0582 0.627745 20.325 0.39855 19.5693 0.289232C18.6908 0.199153 17.8043 0.351839 17.0075 0.730457C16.2899 1.08467 15.5971 1.4864 14.9337 1.93292C14.8985 1.95216 14.8642 1.9732 14.8312 1.99595C14.6799 2.08807 14.5238 2.18504 14.3676 2.27716C12.5183 3.37779 10.5323 4.52692 8.54626 5.67602C7.54594 6.24331 6.55049 6.80575 5.56969 7.36334C4.59864 7.93547 3.58368 8.43973 2.71023 8.99731C1.86599 9.49352 1.18331 10.2207 0.743742 11.0919C0.403683 11.9081 0.229552 12.7832 0.231382 13.6665C0.211863 14.515 0.187465 15.3102 0.158187 16.0035C0.128909 16.6969 0.104512 17.3078 0.0849935 17.8072C0.0410769 18.806 0.00203896 19.3733 0.00203896 19.3733V13.0798C0.00226057 12.174 0.242228 11.2841 0.697868 10.4994C1.15351 9.71476 1.8088 9.06297 2.598 8.60943L14.6702 1.68563L16.4054 0.68731C17.1946 0.236977 18.0888 0 18.9989 0C19.909 0 20.8032 0.236977 21.5924 0.68731L24.73 2.48614C24.7363 2.48775 24.742 2.49092 24.7466 2.49535Z" fill="white"/>
</g>
</g>
<g style="mix-blend-mode:multiply" opacity="0.25">
<g style="mix-blend-mode:multiply" opacity="0.25">
<path d="M37.9997 17.5162V28.9201C38.0004 29.8256 37.7614 30.7154 37.3066 31.5C36.8518 32.2847 36.1972 32.9367 35.4086 33.3905L21.5944 41.3083C20.8967 41.71 20.114 41.9438 19.309 41.991C18.5041 42.0381 17.6992 41.8973 16.9588 41.5798C16.7685 41.503 16.5842 41.4123 16.4074 41.3083L15.5876 40.838C15.6364 40.8622 15.6901 40.8913 15.7535 40.9253C16.0121 41.0562 16.3927 41.2452 16.8856 41.444C17.4737 41.6887 18.1026 41.8218 18.7398 41.8368C19.5547 41.8294 20.3567 41.6335 21.0821 41.2646C21.8872 40.8768 22.7216 40.3192 23.639 39.7858C24.5466 39.2428 25.503 38.6706 26.4984 38.0791C28.4796 36.9009 30.612 35.6742 32.7444 34.4378C33.814 33.8851 34.8487 33.2681 35.8429 32.5905C36.7182 31.9137 37.308 30.9369 37.4971 29.851C37.6445 28.7762 37.7097 27.6919 37.6923 26.6074C37.7167 25.5552 37.7411 24.5612 37.7606 23.64C37.8094 21.8024 37.8826 20.275 37.9168 19.1987C37.9704 18.1271 37.9997 17.5162 37.9997 17.5162Z" fill="#101010"/>
</g>
</g>
<g style="mix-blend-mode:screen" opacity="0.4">
<g style="mix-blend-mode:screen" opacity="0.4">
<path d="M2.04102 31.7858V31.7907C2.02771 31.7866 2.01468 31.7818 2.00198 31.7761C2.01537 31.7776 2.0285 31.7809 2.04102 31.7858Z" fill="white"/>
</g>
</g>
<g style="mix-blend-mode:screen" opacity="0.4">
<g style="mix-blend-mode:screen" opacity="0.4">
<path d="M37.3512 13.8654C37.3414 13.8993 37.2926 14.0545 37.2048 14.3211C37.0974 14.6217 36.9852 15.0824 36.751 15.6302C36.6388 15.9066 36.5265 16.2218 36.385 16.5515C36.2435 16.8812 36.0776 17.24 35.9068 17.6182C35.7263 17.9964 35.5164 18.3891 35.3066 18.8109C35.087 19.2279 34.8235 19.6449 34.5649 20.091C34.2917 20.5274 33.9989 20.9831 33.6817 21.4389C33.3499 21.8898 33.0278 22.365 32.6423 22.8207C31.8675 23.7964 31.0262 24.7182 30.1245 25.5796C29.1522 26.498 28.1186 27.35 27.0308 28.1299C25.9 28.919 24.7182 29.6333 23.493 30.2682C22.2547 30.8919 20.973 31.4267 19.6577 31.8682C18.3877 32.292 17.0878 32.6211 15.7686 32.8525C14.5373 33.0765 13.2914 33.2126 12.0406 33.2598C11.4404 33.284 10.8597 33.2937 10.3083 33.2792C9.74228 33.2646 9.20552 33.2356 8.68828 33.1967C7.0255 33.06 5.37897 32.7711 3.76961 32.3337C3.18894 32.1834 2.74489 32.0282 2.43748 31.9264C2.24717 31.8634 2.11542 31.8149 2.04223 31.7906C9.10812 33.8618 16.7041 33.1633 23.2675 29.8389C29.8308 26.5145 34.8623 20.817 37.3268 13.9187C37.3307 13.9071 37.3357 13.8957 37.3414 13.8848C37.3463 13.8755 37.3512 13.8702 37.3512 13.8654Z" fill="white"/>
</g>
</g>
<g style="mix-blend-mode:screen" opacity="0.4">
<g style="mix-blend-mode:screen" opacity="0.4">
<path d="M24.3664 21.303C24.3615 22.04 24.3664 22.7528 24.3176 23.4073C24.2496 24.4597 24.1095 25.5062 23.8979 26.5395C23.7418 27.2814 23.6247 27.6983 23.6247 27.6983V27.6644C23.6265 27.6625 23.6279 27.6602 23.6288 27.6577C23.6296 27.6552 23.6299 27.6525 23.6295 27.6499C23.6539 27.5189 23.6735 27.388 23.693 27.2571C23.7369 26.9953 23.7759 26.7286 23.8101 26.4619C23.8101 26.4474 23.815 26.4329 23.815 26.4183C23.8491 26.1565 23.8784 25.8898 23.9077 25.628L23.9223 25.4389C23.9467 25.1771 23.9662 24.9104 23.9858 24.6486V24.6243C24.0053 24.3237 24.0199 24.0183 24.0297 23.7176C24.0394 23.417 24.0443 23.1067 24.0443 22.8013C24.0443 22.0546 24.015 21.3127 23.9565 20.5757C23.9418 20.3915 23.9272 20.2121 23.9077 20.0327C23.8833 19.7272 23.8491 19.4218 23.8052 19.1163C23.7759 18.8787 23.7418 18.6363 23.7027 18.3987C23.6783 18.229 23.6491 18.0642 23.6198 17.8945C23.571 17.589 23.5124 17.2787 23.4441 16.9732C23.3953 16.7357 23.3465 16.5029 23.288 16.2702C23.2441 16.0811 23.2001 15.892 23.1513 15.7077C23.0733 15.4023 22.9903 15.0968 22.8976 14.7914C22.8586 14.6459 22.8146 14.5101 22.7707 14.3695C22.7219 14.2047 22.6731 14.0447 22.6146 13.8847C22.6048 13.8507 22.5951 13.8168 22.5804 13.778C22.5121 13.5647 22.4389 13.3513 22.356 13.1428C22.2291 12.784 22.0925 12.4252 21.9461 12.0713C21.8778 11.8967 21.8046 11.727 21.7314 11.5573C21.6435 11.344 21.5459 11.1258 21.4435 10.9125C21.3508 10.6991 21.2483 10.4907 21.1409 10.2773C20.936 9.85549 20.7213 9.44335 20.4919 9.03607C20.3016 8.68697 20.1065 8.34757 19.8966 8.01302C19.2571 6.95908 18.548 5.94834 17.774 4.98749C17.6618 4.84204 17.5398 4.69658 17.4178 4.55112C17.3788 4.50264 17.3397 4.459 17.3007 4.41052C17.164 4.24566 17.0225 4.08566 16.8762 3.92565C16.7249 3.75111 16.5687 3.57656 16.4077 3.40686C16.2564 3.23716 16.0954 3.07231 15.9295 2.90746C15.7734 2.73776 15.6074 2.57775 15.4415 2.41774C15.4367 2.4129 15.4318 2.40805 15.4318 2.4032C15.505 2.46138 15.8173 2.73775 16.3199 3.17413C17.0959 3.89265 17.826 4.65861 18.5059 5.4675C18.9158 5.98145 19.3648 6.53419 19.7844 7.15966C20.0089 7.46513 20.2236 7.78998 20.4285 8.12938C20.6335 8.46879 20.8579 8.80334 21.0482 9.16698C21.4532 9.88458 21.8436 10.6458 22.1949 11.4361C22.356 11.8386 22.5219 12.241 22.6878 12.6483C22.8342 13.0604 22.9806 13.4725 23.1269 13.8895C23.3856 14.7283 23.6198 15.5768 23.8003 16.4253C23.8996 16.8414 23.9778 17.2622 24.0346 17.686C24.1126 18.103 24.1663 18.5199 24.2053 18.9272C24.3176 19.7423 24.3322 20.5467 24.3664 21.303Z" fill="white"/>
</g>
</g>
<defs>
<linearGradient id="paint0_linear_483_3753" x1="26.2886" y1="28.7336" x2="26.2886" y2="4.48495" gradientUnits="userSpaceOnUse">
<stop stop-color="#624BF0"/>
<stop offset="1" stop-color="#F1DEFF"/>
</linearGradient>
<linearGradient id="paint1_linear_483_3753" x1="21.6395" y1="25.7351" x2="-0.00461777" y2="17.304" gradientUnits="userSpaceOnUse">
<stop stop-color="#591DDA"/>
<stop offset="0.640625" stop-color="#905FF7"/>
<stop offset="1" stop-color="#CAB0FF"/>
</linearGradient>
<linearGradient id="paint2_linear_483_3753" x1="19.3003" y1="16.9961" x2="0.377288" y2="34.2831" gradientUnits="userSpaceOnUse">
<stop stop-color="#7118E1"/>
<stop offset="0.526042" stop-color="#9563FF"/>
<stop offset="1" stop-color="#E0BEFB"/>
</linearGradient>
</defs>
</svg>
