<svg width="20" height="20" viewBox="0 0 20 20" fill="none" xmlns="http://www.w3.org/2000/svg">
<path d="M13.0916 10.5917C13.1675 10.5124 13.227 10.419 13.2666 10.3167C13.35 10.1138 13.35 9.88624 13.2666 9.68336C13.227 9.58106 13.1675 9.48761 13.0916 9.40836L10.5916 6.90836C10.4347 6.75144 10.2219 6.66328 9.99996 6.66328C9.77804 6.66328 9.56522 6.75144 9.4083 6.90836C9.25138 7.06528 9.16322 7.27811 9.16322 7.50002C9.16322 7.72194 9.25138 7.93477 9.4083 8.09169L10.4916 9.16669H7.49996C7.27895 9.16669 7.06699 9.25449 6.91071 9.41077C6.75443 9.56705 6.66663 9.77901 6.66663 10C6.66663 10.221 6.75443 10.433 6.91071 10.5893C7.06699 10.7456 7.27895 10.8334 7.49996 10.8334H10.4916L9.4083 11.9084C9.33019 11.9858 9.26819 12.078 9.22589 12.1795C9.18358 12.2811 9.1618 12.39 9.1618 12.5C9.1618 12.61 9.18358 12.719 9.22589 12.8205C9.26819 12.9221 9.33019 13.0142 9.4083 13.0917C9.48577 13.1698 9.57793 13.2318 9.67948 13.2741C9.78103 13.3164 9.88995 13.3382 9.99996 13.3382C10.11 13.3382 10.2189 13.3164 10.3204 13.2741C10.422 13.2318 10.5142 13.1698 10.5916 13.0917L13.0916 10.5917ZM18.3333 10C18.3333 8.35185 17.8446 6.74068 16.9289 5.37027C16.0132 3.99986 14.7117 2.93176 13.189 2.30103C11.6663 1.6703 9.99072 1.50527 8.37421 1.82681C6.7577 2.14836 5.27284 2.94203 4.10741 4.10747C2.94197 5.27291 2.1483 6.75776 1.82675 8.37427C1.50521 9.99078 1.67024 11.6663 2.30097 13.1891C2.9317 14.7118 3.9998 16.0133 5.37021 16.9289C6.74062 17.8446 8.35179 18.3334 9.99996 18.3334C12.2101 18.3334 14.3297 17.4554 15.8925 15.8926C17.4553 14.3298 18.3333 12.2102 18.3333 10ZM3.3333 10C3.3333 8.68148 3.72429 7.39255 4.45683 6.29622C5.18938 5.19989 6.23057 4.34541 7.44874 3.84083C8.66691 3.33624 10.0074 3.20422 11.3006 3.46146C12.5938 3.71869 13.7817 4.35363 14.714 5.28598C15.6464 6.21833 16.2813 7.40622 16.5385 8.69942C16.7958 9.99263 16.6637 11.3331 16.1592 12.5512C15.6546 13.7694 14.8001 14.8106 13.7038 15.5432C12.6074 16.2757 11.3185 16.6667 9.99996 16.6667C8.23185 16.6667 6.53616 15.9643 5.28592 14.7141C4.03568 13.4638 3.3333 11.7681 3.3333 10Z" fill="#101010"/>
</svg>
