<svg width="15" height="16" viewBox="0 0 15 16" fill="none" xmlns="http://www.w3.org/2000/svg">
<path d="M7.27002 0.734375C3.25635 0.734375 0.00439453 3.98633 0.00439453 8C0.00439453 12.0137 3.25635 15.2656 7.27002 15.2656C11.2837 15.2656 14.5356 12.0137 14.5356 8C14.5356 3.98633 11.2837 0.734375 7.27002 0.734375ZM7.27002 3.54688C8.69385 3.54688 9.84814 4.70117 9.84814 6.125C9.84814 7.54883 8.69385 8.70312 7.27002 8.70312C5.84619 8.70312 4.69189 7.54883 4.69189 6.125C4.69189 4.70117 5.84619 3.54688 7.27002 3.54688ZM7.27002 13.625C5.55029 13.625 4.00928 12.8457 2.97803 11.627C3.52881 10.5898 4.60693 9.875 5.86377 9.875C5.93408 9.875 6.00439 9.88672 6.07178 9.90723C6.45264 10.0303 6.85107 10.1094 7.27002 10.1094C7.68896 10.1094 8.09033 10.0303 8.46826 9.90723C8.53564 9.88672 8.60596 9.875 8.67627 9.875C9.93311 9.875 11.0112 10.5898 11.562 11.627C10.5308 12.8457 8.98975 13.625 7.27002 13.625Z" fill="#111111"/>
</svg>
