<svg width="21" height="20" viewBox="0 0 21 20" fill="none" xmlns="http://www.w3.org/2000/svg">
<path d="M17.5 4.5H14.5V3.5C14.5 2.70435 14.1839 1.94129 13.6213 1.37868C13.0587 0.816071 12.2956 0.5 11.5 0.5H9.5C8.70435 0.5 7.94129 0.816071 7.37868 1.37868C6.81607 1.94129 6.5 2.70435 6.5 3.5V4.5H3.5C2.70435 4.5 1.94129 4.81607 1.37868 5.37868C0.816071 5.94129 0.5 6.70435 0.5 7.5V16.5C0.5 17.2956 0.816071 18.0587 1.37868 18.6213C1.94129 19.1839 2.70435 19.5 3.5 19.5H17.5C18.2956 19.5 19.0587 19.1839 19.6213 18.6213C20.1839 18.0587 20.5 17.2956 20.5 16.5V7.5C20.5 6.70435 20.1839 5.94129 19.6213 5.37868C19.0587 4.81607 18.2956 4.5 17.5 4.5ZM8.5 3.5C8.5 3.23478 8.60536 2.98043 8.79289 2.79289C8.98043 2.60536 9.23478 2.5 9.5 2.5H11.5C11.7652 2.5 12.0196 2.60536 12.2071 2.79289C12.3946 2.98043 12.5 3.23478 12.5 3.5V4.5H8.5V3.5ZM18.5 16.5C18.5 16.7652 18.3946 17.0196 18.2071 17.2071C18.0196 17.3946 17.7652 17.5 17.5 17.5H3.5C3.23478 17.5 2.98043 17.3946 2.79289 17.2071C2.60536 17.0196 2.5 16.7652 2.5 16.5V11C5.04626 12.0101 7.76069 12.5293 10.5 12.53C13.2392 12.5283 15.9535 12.0092 18.5 11V16.5ZM18.5 8.81C15.9784 9.91778 13.2542 10.4898 10.5 10.4898C7.74579 10.4898 5.0216 9.91778 2.5 8.81V7.5C2.5 7.23478 2.60536 6.98043 2.79289 6.79289C2.98043 6.60536 3.23478 6.5 3.5 6.5H17.5C17.7652 6.5 18.0196 6.60536 18.2071 6.79289C18.3946 6.98043 18.5 7.23478 18.5 7.5V8.81Z" fill="black"/>
</svg>
