<svg width="19" height="20" viewBox="0 0 19 20" fill="none" xmlns="http://www.w3.org/2000/svg">
<path d="M11.923 9.50103L8.68371 6.26178C8.61269 6.19017 8.52819 6.13334 8.4351 6.09455C8.342 6.05577 8.24214 6.0358 8.14129 6.0358C8.04044 6.0358 7.94058 6.05577 7.84748 6.09455C7.75438 6.13334 7.66989 6.19017 7.59887 6.26178C7.45658 6.40492 7.37671 6.59855 7.37671 6.80038C7.37671 7.00221 7.45658 7.19584 7.59887 7.33898L10.3033 10.0435L7.59887 12.7479C7.45658 12.8911 7.37671 13.0847 7.37671 13.2865C7.37671 13.4884 7.45658 13.682 7.59887 13.8251C7.67025 13.8959 7.75491 13.952 7.84799 13.99C7.94108 14.028 8.04075 14.0473 8.14129 14.0467C8.24183 14.0473 8.3415 14.028 8.43458 13.99C8.52767 13.952 8.61233 13.8959 8.68371 13.8251L11.923 10.5859C11.9946 10.5149 12.0514 10.4304 12.0902 10.3373C12.129 10.2442 12.1489 10.1443 12.1489 10.0435C12.1489 9.9426 12.129 9.84275 12.0902 9.74965C12.0514 9.65655 11.9946 9.57206 11.923 9.50103Z" fill="#A0A0A0"/>
</svg>
