<svg width="19" height="20" viewBox="0 0 19 20" fill="none" xmlns="http://www.w3.org/2000/svg">
<path d="M8.69674 10.0435L11.4012 7.339C11.5435 7.19586 11.6234 7.00223 11.6234 6.8004C11.6234 6.59857 11.5435 6.40494 11.4012 6.26179C11.3302 6.19019 11.2457 6.13335 11.1526 6.09457C11.0595 6.05578 10.9596 6.03581 10.8588 6.03581C10.7579 6.03581 10.6581 6.05578 10.565 6.09457C10.4719 6.13335 10.3874 6.19019 10.3164 6.26179L7.07712 9.50105C7.00551 9.57207 6.94868 9.65657 6.90989 9.74966C6.8711 9.84276 6.85114 9.94262 6.85114 10.0435C6.85114 10.1443 6.8711 10.2442 6.90989 10.3373C6.94868 10.4304 7.00551 10.5149 7.07712 10.5859L10.3164 13.8633C10.3878 13.9342 10.4724 13.9902 10.5655 14.0282C10.6586 14.0662 10.7582 14.0855 10.8588 14.0849C10.9593 14.0855 11.059 14.0662 11.1521 14.0282C11.2452 13.9902 11.3298 13.9342 11.4012 13.8633C11.5435 13.7202 11.6234 13.5266 11.6234 13.3247C11.6234 13.1229 11.5435 12.9293 11.4012 12.7861L8.69674 10.0435Z" fill="#676767"/>
</svg>
