<svg width="15" height="16" viewBox="0 0 15 16" fill="none" xmlns="http://www.w3.org/2000/svg">
<path d="M13.3125 6.8C13.1369 6.58915 12.9171 6.41942 12.6687 6.30279C12.4204 6.18616 12.1494 6.12547 11.875 6.125H9.025L9.375 5.23125C9.52058 4.83992 9.56907 4.41913 9.51629 4.00495C9.46351 3.59077 9.31106 3.19558 9.07199 2.85327C8.83293 2.51095 8.51439 2.23175 8.14371 2.03959C7.77303 1.84743 7.36127 1.74806 6.94375 1.75C6.82352 1.75025 6.70592 1.78517 6.60504 1.85057C6.50417 1.91598 6.42429 2.00909 6.375 2.11875L4.59375 6.125H3.125C2.62772 6.125 2.15081 6.32254 1.79917 6.67417C1.44754 7.0258 1.25 7.50272 1.25 8V12.375C1.25 12.8723 1.44754 13.3492 1.79917 13.7008C2.15081 14.0525 2.62772 14.25 3.125 14.25H11.0812C11.5199 14.2498 11.9446 14.0959 12.2815 13.815C12.6183 13.5341 12.846 13.144 12.925 12.7125L13.7188 8.3375C13.7678 8.06711 13.7569 7.78923 13.6867 7.52354C13.6165 7.25785 13.4887 7.01084 13.3125 6.8ZM4.375 13H3.125C2.95924 13 2.80027 12.9341 2.68306 12.8169C2.56585 12.6997 2.5 12.5408 2.5 12.375V8C2.5 7.83424 2.56585 7.67527 2.68306 7.55806C2.80027 7.44085 2.95924 7.375 3.125 7.375H4.375V13ZM12.5 8.1125L11.7062 12.4875C11.6796 12.6331 11.6022 12.7645 11.4877 12.8584C11.3733 12.9522 11.2292 13.0024 11.0812 13H5.625V6.88125L7.325 3.05625C7.49999 3.10726 7.6625 3.194 7.80229 3.31099C7.94207 3.42797 8.05608 3.57266 8.13712 3.73593C8.21817 3.8992 8.26449 4.07749 8.27316 4.25956C8.28183 4.44163 8.25266 4.62352 8.1875 4.79375L7.85625 5.6875C7.78567 5.87641 7.76184 6.07959 7.7868 6.2797C7.81176 6.47982 7.88476 6.67092 7.99958 6.83671C8.11441 7.00249 8.26763 7.13804 8.44619 7.23177C8.62475 7.3255 8.82333 7.37464 9.025 7.375H11.875C11.9668 7.37485 12.0575 7.39493 12.1407 7.43382C12.2239 7.47271 12.2975 7.52945 12.3563 7.6C12.4165 7.66957 12.4606 7.75159 12.4854 7.84018C12.5103 7.92877 12.5152 8.02176 12.5 8.1125Z" fill="#101010"/>
</svg>
