<svg width="21" height="20" viewBox="0 0 21 20" fill="none" xmlns="http://www.w3.org/2000/svg">
<path d="M2.75 8.00003H8.25C8.95003 7.99839 9.62745 7.752 10.165 7.30352C10.7025 6.85504 11.0662 6.23271 11.1932 5.5443C11.3202 4.85588 11.2025 4.14473 10.8604 3.53398C10.5183 2.92323 9.97336 2.45134 9.32 2.20003C8.94402 1.46206 8.34823 0.859001 7.61489 0.47409C6.88154 0.0891788 6.04679 -0.0586018 5.22587 0.0511469C4.40495 0.160896 3.63834 0.522762 3.03186 1.08679C2.42537 1.65083 2.00893 2.38921 1.84 3.20003C1.31481 3.42318 0.88176 3.81928 0.612787 4.32255C0.343815 4.82582 0.255106 5.40596 0.361396 5.9666C0.467685 6.52725 0.762576 7.03467 1.19709 7.40457C1.6316 7.77447 2.17957 7.98459 2.75 8.00003ZM2.75 5.00003C3.01522 5.00003 3.26957 4.89467 3.45711 4.70713C3.64464 4.5196 3.75 4.26524 3.75 4.00003C3.7533 3.5283 3.92324 3.07292 4.2298 2.71436C4.53635 2.3558 4.95978 2.11714 5.42527 2.04056C5.89075 1.96397 6.36832 2.05439 6.77359 2.29584C7.17886 2.53729 7.48574 2.91422 7.64 3.36003C7.69866 3.53 7.80207 3.68102 7.93934 3.79717C8.07661 3.91332 8.24266 3.9903 8.42 4.02003C8.65139 4.05994 8.86135 4.18 9.01311 4.35918C9.16486 4.53836 9.24872 4.76522 9.25 5.00003C9.25 5.26524 9.14464 5.5196 8.95711 5.70713C8.76957 5.89467 8.51522 6.00003 8.25 6.00003H2.75C2.61739 6.00003 2.49021 5.94735 2.39645 5.85358C2.30268 5.75981 2.25 5.63263 2.25 5.50003C2.25 5.36742 2.30268 5.24024 2.39645 5.14647C2.49021 5.0527 2.61739 5.00003 2.75 5.00003ZM19.25 14H18.25V7.00003C18.25 6.20438 17.9339 5.44131 17.3713 4.87871C16.8087 4.3161 16.0456 4.00003 15.25 4.00003H14.25C13.9848 4.00003 13.7304 4.10538 13.5429 4.29292C13.3554 4.48046 13.25 4.73481 13.25 5.00003C13.25 5.26524 13.3554 5.5196 13.5429 5.70713C13.7304 5.89467 13.9848 6.00003 14.25 6.00003H15.25C15.5152 6.00003 15.7696 6.10538 15.9571 6.29292C16.1446 6.48046 16.25 6.73481 16.25 7.00003V14H4.25V11C4.25 10.7348 4.14464 10.4805 3.95711 10.2929C3.76957 10.1054 3.51522 10 3.25 10C2.98478 10 2.73043 10.1054 2.54289 10.2929C2.35536 10.4805 2.25 10.7348 2.25 11V14H1.25C0.984784 14 0.73043 14.1054 0.542893 14.2929C0.355357 14.4805 0.25 14.7348 0.25 15V17C0.25 17.7957 0.566071 18.5587 1.12868 19.1213C1.69129 19.684 2.45435 20 3.25 20H17.25C18.0456 20 18.8087 19.684 19.3713 19.1213C19.9339 18.5587 20.25 17.7957 20.25 17V15C20.25 14.7348 20.1446 14.4805 19.9571 14.2929C19.7696 14.1054 19.5152 14 19.25 14ZM18.25 17C18.25 17.2652 18.1446 17.5196 17.9571 17.7071C17.7696 17.8947 17.5152 18 17.25 18H3.25C2.98478 18 2.73043 17.8947 2.54289 17.7071C2.35536 17.5196 2.25 17.2652 2.25 17V16H18.25V17Z" fill="black"/>
</svg>
