<svg width="21" height="20" viewBox="0 0 21 20" fill="none" xmlns="http://www.w3.org/2000/svg">
<path d="M19.83 5.31998C19.0191 3.80444 17.8351 2.52067 16.39 1.58998C15.0822 0.74866 13.5962 0.223924 12.0501 0.0574623C10.5041 -0.108999 8.94044 0.087402 7.48354 0.631061C6.02664 1.17472 4.71661 2.05066 3.65752 3.18927C2.59843 4.32789 1.81948 5.69781 1.38254 7.19019C0.945608 8.68258 0.862738 10.2563 1.14051 11.7863C1.41829 13.3163 2.04906 14.7605 2.98271 16.004C3.91635 17.2476 5.12715 18.2563 6.51889 18.9499C7.91063 19.6436 9.44497 20.0031 11 20H11.29C12.9891 19.9498 14.6473 19.4674 16.1081 18.5983C17.5689 17.7292 18.784 16.5021 19.6388 15.0328C20.4935 13.5635 20.9596 11.9006 20.9931 10.2012C21.0265 8.5017 20.6262 6.82175 19.83 5.31998ZM10 17.93C8.07814 17.6741 6.31462 16.7289 5.03735 15.2703C3.76007 13.8116 3.05598 11.9388 3.05598 9.99998C3.05598 8.06116 3.76007 6.18831 5.03735 4.72968C6.31462 3.27105 8.07814 2.3259 10 2.06998V17.93ZM12 2.06998C12.8645 2.18057 13.7054 2.43047 14.49 2.80998L12 7.11998V2.06998ZM12 11.07L16.17 3.89998C16.7848 4.42793 17.3174 5.04473 17.75 5.72998L12 15.69V11.07ZM13.15 17.65L18.74 7.99998C18.909 8.65333 18.9964 9.32513 19 9.99998C18.9988 11.746 18.4263 13.4436 17.3701 14.8339C16.3138 16.2242 14.8318 17.2307 13.15 17.7V17.65Z" fill="#B592FF"/>
</svg>
